<svg width="40" height="40" preserveAspectRatio="xMinYMin meet" viewBox="63.5 0.0 355.0 355.0" xmlns="http://www.w3.org/2000/svg" version="1.0" fill-rule="evenodd" xmlns:xlink="http://www.w3.org/1999/xlink"><title>...</title><desc>...</desc><g id="group" transform="scale(1,-1) translate(0,-355)" clip="0 0 482 355"><g transform=""><g transform=" matrix(1,0,0,-1,0,355.4)"><g transform=""><ellipse cx="52.2" cy="345.6" rx="17.399999999999995" ry="2.5" style="stroke: none; stroke-linecap: butt; stroke-width: 1; fill: rgb(87%,89%,94%); fill-rule: evenodd;"/><ellipse cx="398.6" cy="345.6" rx="21.100000000000023" ry="2.5" style="stroke: none; stroke-linecap: butt; stroke-width: 1; fill: rgb(87%,89%,94%); fill-rule: evenodd;"/><ellipse cx="205.8" cy="346.2" rx="115.09999999999998" ry="3.1000000000000227" style="stroke: none; stroke-linecap: butt; stroke-width: 1; fill: rgb(87%,89%,94%); fill-rule: evenodd;"/><g transform=""><path d="M 420.5 159.2 C 417 156.6 412.5 154.2 407.3 151.9 C 402.2 149.6 396.6 147.4 391 145.1 C 385.4 142.8 365.5 133 362.3 130.1 C 387.1 154.7 403.7 197.5 425.1 180.2 C 433.1 173.7 427.4 164.4 420.5 159.2 Z M 396.6 187.5 C 390.8 186.5 384.5 186.6 378.6 187.4 C 373.2 188.2 368.1 189.5 363.8 191.2 C 366.6 190.3 370.5 190.9 375 192.3 C 385.7 194.4 393.5 202.2 401.4 209.1 C 406.3 212 410.2 217.9 417.1 215 C 424 213 418.1 200.3 412 194.3 C 407.7 190.6 402.4 188.5 396.6 187.5 Z M 363.8 191.2 C 363.4 191.3 363 191.5 362.6 191.7 C 363 191.5 363.4 191.4 363.8 191.2 Z M 464.3 203.1 C 457.9 200 448 200 444.4 201.2 C 433.2 205 428.7 214.6 434.6 221.5 C 440.5 230.3 463 211.7 481.6 230.1 C 482.6 220.9 478.4 209.9 464.3 203.1 Z M 391.6 222.8 C 383.8 220.8 375 220.8 367.7 225.3 C 375.4 221.5 382.8 226.5 389.1 233.1 C 395.6 240.4 401.5 258 409.3 248.3 C 417 238.5 402.3 225.7 391.6 222.8 Z M 445.4 254.2 C 440.7 253.4 436.6 254 433.4 256 C 424.1 261.9 422.3 272.7 431.7 275.3 C 436.2 276.6 441 272.8 445.7 270.1 C 450.4 267.4 455.2 265.4 460.1 268.8 C 458.7 260.2 454.7 255.7 445.4 254.2 Z M 372.5 248.3 C 373.9 248 377.1 255.6 381.1 264.2 C 384.7 269.8 384.7 276.6 389.6 281.5 C 393.5 285.4 400.4 285.4 400.4 280.5 C 401.3 265.9 391.6 243.3 372.5 248.3 Z M 441.1 298.3 C 436.5 298 432.4 297.5 427.9 295.8 C 421.9 293.6 414 297 416.7 304.5 C 420.5 315.3 433.4 315.5 442.5 311.8 C 451.8 308.1 455.2 314.5 455.2 314.5 C 455.2 314.5 457.1 299.5 441.1 298.3 Z " style="stroke: none; stroke-linecap: butt; stroke-width: 1; fill: rgb(38%,80%,69%); fill-rule: evenodd;"/></g><g transform=""><path d="M 422.9 240.2 C 423.6 235.8 424.3 228.7 424.8 224.3 C 426.4 211.1 429.3 191.6 425.1 180.3 C 422.3 172.8 409.2 159.6 401.4 157.9 C 407.9 161 422.2 175 423.8 180.9 C 427.1 191.8 425.5 201.6 424.6 212.6 C 424.2 218.1 423.5 223.6 423 229.1 C 422.5 234.6 419 248.5 419 248.5 C 423 212 405.4 198.4 395 194 C 391.2 192.4 387.4 192.3 383.4 191.9 C 383.2 191.9 383.1 192.1 383.3 192.1 C 389 192.3 394.5 194.4 399.5 197.6 C 403.8 200.8 407.2 204.6 409.9 208.8 C 412.6 212.9 414.7 217.5 416.2 222.3 C 423.1 241.6 413.1 261.4 408.2 281 C 409.3 267.4 408.9 254.8 405 242 C 403.4 236.9 396.6 227.1 390.8 225 C 416.3 242.6 405.7 279.9 402.8 306.4 C 398.8 292.4 392.6 266.6 385.9 257.3 C 392.8 279.8 408 310.4 395.7 329.7 C 400.6 321.9 403.9 327.1 403.9 327.1 C 403.9 327.1 404.1 311 406.1 310.1 C 413.6 306.8 430 300.3 438.8 306.2 C 429 298.4 405.1 307.1 405.1 307.1 C 405.1 307.1 422.2 276.9 434.9 267.7 C 439.3 264.6 444 262 448.6 260.3 C 440.7 261.9 436.6 263.7 432.6 267.8 C 426 274 417.1 284.6 408.1 294.9 C 411 276.3 421 247.9 430.6 232.3 C 433.1 228.1 446.3 199.5 461.3 211.3 C 441.8 193.7 425.8 237.7 422.9 240.2 Z " style="stroke: none; stroke-linecap: butt; stroke-width: 1; fill: rgb(19%,60%,49%); fill-rule: evenodd;"/></g><g transform=""><g transform=""><path d="M 307.2 167 C 311.2 168.2 318.2 172.7 322.5 181.3 C 329 194.2 342.6 205.9 358.4 206.1 C 345.9 186.6 352.3 176.5 307.2 167 Z M 347.1 210.8 C 336.3 208.9 324.1 211.2 316.3 219.1 C 318.1 217.1 324.8 216.8 328.5 217.3 C 342.5 218.3 349.2 242.2 361.5 229.6 C 369.4 221.7 354.9 212.2 347.1 210.8 Z M 388.9 202.2 C 376.3 204 376 219.4 379.4 221.6 C 386 226 388.9 215.3 398 213.6 C 401 213 408.5 215 411.3 216.3 C 404 212.4 405 200 388.9 202.2 Z M 365.3 243.3 C 360.5 240 353.8 237.6 348.6 237 C 340.3 237.3 335 242.7 331.2 248.8 C 334.8 242.7 342.6 244.5 350.6 247.8 C 357.4 250.7 366.1 257.8 370.1 254.2 C 372.9 250.7 370.1 246.6 365.3 243.3 Z M 395.1 233.2 C 389.2 235.8 385.5 242.4 385.6 248.1 C 385.6 253.8 389.3 260.2 396.1 256.5 C 400.6 254 398.1 250.1 401.3 245 C 404.5 239.8 408.7 235.6 411.7 239.3 C 407.4 232.6 401.8 230.8 395.1 233.2 Z M 345.5 266.1 C 352.8 266.4 354.2 268.9 358 276.6 C 362.6 285.9 369.5 292.4 376.5 287.8 C 380.2 285.4 377.4 275.8 373.7 271.6 C 367.3 264.3 355.1 259 345.5 266.1 Z M 396.5 292.6 C 401.6 297.8 408.6 295.5 412.9 292.2 C 417.2 288.8 418.8 274.1 418.8 274.1 C 418.8 274.1 407.4 279.7 400.2 281.1 C 395.3 282.6 391.7 287.6 396.5 292.6 Z " style="stroke: none; stroke-linecap: butt; stroke-width: 1; fill: rgb(38%,80%,69%); fill-rule: evenodd;"/></g><g transform=""><path d="M 393.2 296.9 C 389.5 303.6 389.2 297.7 389.1 292.8 C 388.9 280.5 387.4 248.5 401.7 236.8 C 386.8 244.6 389.7 265.4 387.1 280.6 C 385.7 260.6 365.2 214.9 394.9 207.2 C 380 208.1 376.3 224.1 377.8 238.6 C 371.1 222.8 359.8 203.4 345.4 193.5 C 360.4 206.4 372.3 231.3 378.7 249 C 370 232.9 347.7 213.9 331 215.7 C 330.9 215.7 330.8 215.9 330.9 215.9 C 359.9 217.2 384.2 250.9 385.2 279.7 C 380.2 273.1 370.9 240.1 346.7 241.1 C 371.2 242.5 386.4 282.3 388.3 304.3 C 381.8 293.8 374.3 284.4 367.6 275.6 C 365.1 272.3 361.6 268.8 357.9 267.3 C 373.5 283.3 392 313.1 391.3 326.3 L 394.6 325.5 C 394.6 325.5 384.4 298.2 410.1 283.5 C 401.1 283.2 396 291.7 393.2 296.9 Z " style="stroke: none; stroke-linecap: butt; stroke-width: 1; fill: rgb(19%,60%,49%); fill-rule: evenodd;"/></g></g><g transform=""><g transform=""><path d="M 417.4 312 L 380 312 C 378.6 312 377.6 313.3 377.9 314.6 L 379.3 320.7 C 379.5 321.7 380.4 322.4 381.4 322.4 L 416.1 322.4 C 417.1 322.4 418 321.7 418.2 320.7 L 419.6 314.6 C 419.8 313.3 418.8 312 417.4 312 Z " style="stroke: none; stroke-linecap: butt; stroke-width: 1; fill: rgb(96%,57%,11%); fill-rule: evenodd;"/></g><g transform=""><path d="M 384.9 343.3 C 385.1 344.7 386.3 345.8 387.7 345.8 L 409.6 345.8 C 411 345.8 412.2 344.7 412.5 343.3 L 415.5 322.4 L 381.9 322.4 L 384.9 343.3 Z " style="stroke: none; stroke-linecap: butt; stroke-width: 1; fill: rgb(94%,35%,14%); fill-rule: evenodd;"/></g></g><g transform=""><g transform=""><path d="M 401.5 7.5 L 56.8 7.5 C 45.1 7.5 35.4 16.4 34.4 28 L 15.2 247.9 C 14.1 261 24.4 272.3 37.6 272.3 L 382.3 272.3 C 394 272.3 403.7 263.4 404.7 251.8 L 423.9 31.9 C 425 18.8 414.7 7.5 401.5 7.5 Z " style="stroke: none; stroke-linecap: butt; stroke-width: 1; fill: rgb(81%,84%,88%); fill-rule: evenodd;"/></g><g transform=""><path d="M 392.5 7.5 L 47.6 7.5 C 36 7.5 26.3 16.4 25.3 28 L 6.1 248.1 C 5.9 250.3 6 252.5 6.5 254.6 C 8.6 264.7 17.5 272.4 28.4 272.4 L 373.3 272.4 C 384.9 272.4 394.6 263.5 395.6 252 L 414.8 31.9 C 415.9 18.8 405.6 7.5 392.5 7.5 Z " style="stroke: none; stroke-linecap: butt; stroke-width: 1; fill: rgb(91%,92%,94%); fill-rule: evenodd;"/></g><g transform=""><path d="M 392.5 20.9 L 47.6 20.9 C 42.9 20.9 39 24.4 38.6 29.1 L 19.4 249.2 C 19.1 252.6 20.7 255 21.7 256 C 22.7 257.1 24.9 258.9 28.3 258.9 L 373.2 258.9 C 377.9 258.9 381.8 255.4 382.2 250.7 L 401.4 30.7 C 401.7 27.3 400.1 24.9 399.1 23.8 C 398.1 22.7 395.9 20.9 392.5 20.9 Z " style="stroke: none; stroke-linecap: butt; stroke-width: 1; fill: rgb(100%,100%,100%); fill-rule: evenodd;"/></g><g transform=""><path d="M 23.4 252.2 L 42.6 32.1 C 43 27.4 46.9 23.9 51.6 23.9 L 396.4 23.9 C 397.6 23.9 398.7 24.1 399.6 24.5 C 399.4 24.2 399.2 24 399.1 23.8 C 398.1 22.7 395.9 20.9 392.5 20.9 L 47.6 20.9 C 42.9 20.9 39 24.4 38.6 29.1 L 19.4 249.2 C 19.1 252.6 20.7 255 21.7 256 C 22.3 256.7 23.5 257.7 25.2 258.3 C 24.3 257.1 23.2 255 23.4 252.2 Z " style="stroke: none; stroke-linecap: butt; stroke-width: 1; fill: rgb(81%,84%,88%); fill-rule: evenodd;"/></g><g transform=""><path d="M 126.9 339 C 126.9 342.7 129.9 345.7 133.6 345.7 L 209.4 345.7 L 209.4 332.3 L 133.6 332.3 C 129.9 332.3 126.9 335.3 126.9 339 Z M 247.3 272.1 L 170.8 272.1 L 168.3 297.6 C 167.9 301.5 169.3 305.3 172 308 L 196.3 332.3 L 270.4 332.3 L 246.2 303.1 L 247.3 272.1 Z " style="stroke: none; stroke-linecap: butt; stroke-width: 1; fill: rgb(91%,92%,94%); fill-rule: evenodd;"/></g><g transform=""><path d="M 169.8 283.3 L 247 283.3 L 247.3 272.1 L 170.9 272.1 Z " style="stroke: none; stroke-linecap: butt; stroke-width: 1; fill: rgb(81%,84%,88%); fill-rule: evenodd;"/></g><g transform=""><path d="M 254.6 298.5 L 257.3 272 L 243.9 272 L 241.4 297.5 C 241 301.4 242.4 305.2 245.1 307.9 L 269.4 332.2 L 206.6 332.2 C 202.899692 332.2 199.9 335.199692 199.9 338.9 C 199.9 342.600308 202.899692 345.6 206.6 345.6 L 270.4 345.6 C 276.5 345.6 281.8 341.4 283.1 335.3 C 284 330.9 282.4 326.3 279.2 323.1 L 254.6 298.5 Z " style="stroke: none; stroke-linecap: butt; stroke-width: 1; fill: rgb(81%,84%,88%); fill-rule: evenodd;"/></g></g><g transform=""><g transform=""><path d="M 80.1 283.1 C 76.3 281.6 73 284.9 71.1 288.2 C 69.6 290.7 68.4 293.4 65.9 295.1 C 64.9 295.7 63.8 296.1 62.6 296.1 C 58.3 296 57.2 291.2 58.6 288 C 59.8 285.3 62.1 283.3 64.3 281.1 C 69.8 275.6 73.9 268.6 76.1 261.1 C 77.4 256.4 77.9 250.9 74.3 247.1 C 72.4 245.1 69.5 244.3 66.9 245.3 C 63.8 246.6 63.2 249.6 62.7 252.4 C 62.3 254.7 61.8 257.2 59.8 258.7 C 58.5 259.6 56.7 259.8 55.5 258.7 C 54.3 257.7 54.4 256.1 54.5 254.7 C 55 245.8 51.9 236.8 46 230.1 C 42.8 226.5 37.2 223.4 33.2 226.7 C 32.2 227.5 31.5 228.7 31.1 230 C 30.2 233 30.9 236.1 31.6 239.1 L 35.4 255.4 C 35.8 256.9 34 258.1 32.7 257.2 L 21.4 249.4 C 20.3 248.7 19.1 248.2 17.9 248.1 C 13.7 247.8 12.5 251.4 12.5 254.5 C 12.4 261.3 16 267.7 20.8 272.5 C 25.6 277.3 31.6 280.8 37.4 284.4 C 39.2 285.5 41.1 286.7 41.8 288.8 C 42.2 290 41.9 291.4 41 292.2 C 39.4 293.6 37.1 292.6 35.4 291.5 C 30.2 288.1 25.9 283.2 19.5 281.8 C 17.2 281.3 14.9 281.4 12.7 282.2 C 6 284.9 6.4 292 9.5 296.5 C 12.8 301.3 17.8 304.5 22.5 307.8 C 31.9 314.5 45.1 326.5 57.8 322.7 C 65.2 320.5 71.8 314.8 76.5 308.9 C 80 304.5 82.5 299.4 83.7 294 C 84.3 291.2 84.6 288.3 83.1 285.7 C 82.2 284.5 81.3 283.6 80.1 283.1 Z " style="stroke: none; stroke-linecap: butt; stroke-width: 1; fill: rgb(38%,80%,69%); fill-rule: evenodd;"/></g><g transform=""><path d="M 44.4 248.8 C 44.2 248.8 44.1 249 44.1 249.2 C 49.8 278.8 51.5 309.1 49.1 339.2 C 49.1 339.4 49.2 339.5 49.4 339.6 C 49.6 339.6 49.7 339.5 49.7 339.3 C 52 309.1 50.3 278.7 44.6 249.1 C 44.7 248.8 44.6 248.7 44.4 248.8 Z " style="stroke: none; stroke-linecap: butt; stroke-width: 1; fill: rgb(19%,60%,49%); fill-rule: evenodd;"/></g><g transform=""><path d="M 69.4 254.6 C 69.2 254.5 69 254.6 69 254.8 C 67.6 258.6 65.9 262.8 63.5 266.5 C 61.7 269.3 58.5 273 53.9 274.7 C 48.2 276.9 40.8 275.5 34.7 271.2 C 29.1 267.2 25 261.6 21.1 256.1 C 21 256 20.8 255.9 20.6 256 C 20.5 256.1 20.4 256.3 20.5 256.5 C 24.5 262 28.6 267.7 34.3 271.8 C 38.6 274.9 43.5 276.5 48.1 276.5 C 50.2 276.5 52.2 276.2 54.1 275.4 C 58.9 273.6 62.1 269.8 64 266.9 C 66.5 263.2 68.1 258.9 69.5 255.1 C 69.7 254.8 69.6 254.7 69.4 254.6 Z M 74.2 295.6 C 71.1 301.1 66 308.8 58.1 311.5 C 51.3 313.8 43.1 312 36 306.8 L 34.6 305.8 C 28.6 301.4 22.9 297.3 17 291.2 C 16.9 291.1 16.7 291.1 16.5 291.2 C 16.4 291.3 16.4 291.5 16.5 291.7 C 22.5 297.8 28.2 302 34.2 306.4 L 35.6 307.4 C 40.8 311.2 46.6 313.2 52 313.2 C 54.2 313.2 56.3 312.9 58.3 312.2 C 66.4 309.5 71.6 301.7 74.7 296 C 74.8 295.8 74.7 295.6 74.6 295.5 C 74.5 295.3 74.2 295.4 74.2 295.6 Z " style="stroke: none; stroke-linecap: butt; stroke-width: 1; fill: rgb(19%,60%,49%); fill-rule: evenodd;"/></g><g transform=""><g transform=""><path d="M 87.5 287.1 C 86.8 286.9 86 286.9 85.2 287 L 77 288.9 C 76 289.1 75.3 288.1 75.9 287.2 L 81.7 278.7 C 82.8 277.1 83.8 275.6 84 273.6 C 84.1 272.8 83.9 272 83.5 271.2 C 82 268.4 78.1 268.9 75.5 270.3 C 70.6 272.8 66.8 277.3 65.1 282.5 C 64.8 283.3 64.6 284.3 63.6 284.6 C 62.7 284.9 61.7 284.4 61.2 283.6 C 60.4 282.3 60.6 280.8 60.9 279.3 C 61.2 277.6 61.1 275.1 60.1 274.3 C 59.2 273.6 56.6 273.3 55.5 273.7 C 53.5 274.5 51.6 278.3 51.3 281.4 C 50.8 286.2 51.6 291.1 53.5 295.5 C 54.2 297.2 55.1 298.9 55.2 300.7 C 55.2 302.9 53.5 305.4 51.1 304.5 C 50.4 304.3 49.9 303.8 49.5 303.2 C 48.4 301.7 48.4 299.8 48.1 298.1 C 47.8 295.8 46.6 293.1 44.1 293.2 C 43.3 293.2 42.6 293.5 42 294 C 40.6 295.2 40.1 296.9 39.8 298.6 C 39.3 302 39.5 305.5 40.5 308.8 C 41.8 313.3 44.3 318 48 320.9 C 54.4 325.9 64.4 323.5 71.3 321.8 C 74.7 320.9 78.4 318.7 81.4 316.7 C 84.2 314.8 86 310.8 82.8 307.7 C 81.8 306.7 80.4 306.1 79 305.9 C 75.1 305.3 71.5 307.1 67.8 307.9 C 66.6 308.2 65.1 308.2 64.5 307 C 64.1 306.3 64.3 305.5 64.8 304.8 C 65.6 303.7 67 303.4 68.3 303.2 C 72.4 302.5 76.6 301.8 80.4 300.1 C 84.2 298.4 87.7 295.5 89.2 291.6 C 89.8 290.3 89.9 287.9 87.5 287.1 Z " style="stroke: none; stroke-linecap: butt; stroke-width: 1; fill: rgb(38%,80%,69%); fill-rule: evenodd;"/></g><g transform=""><path d="M 72.2 281.4 C 72 281.3 71.7 281.3 71.6 281.5 C 61.7 297.3 53.9 314.4 48.4 332.3 C 48.3 332.5 48.5 332.8 48.7 332.8 L 48.8 332.8 C 49 332.8 49.2 332.7 49.3 332.5 C 54.8 314.7 62.5 297.6 72.4 281.9 C 72.4 281.8 72.4 281.6 72.2 281.4 Z " style="stroke: none; stroke-linecap: butt; stroke-width: 1; fill: rgb(19%,60%,49%); fill-rule: evenodd;"/></g><g transform=""><path d="M 83.5 290.8 C 80 293.1 76.5 295.4 72.4 296.4 C 68 297.5 63.6 296.7 60.9 294.2 C 58.7 292.2 57.8 289.4 57.4 287.4 C 56.9 284.8 56.9 282 56.9 279.5 C 56.9 279.3 56.7 279.1 56.5 279.1 C 56.3 279.1 56.1 279.3 56.1 279.5 C 56.1 282 56 284.9 56.6 287.6 C 57 289.7 58 292.7 60.4 294.8 C 62 296.3 64.3 297.2 66.7 297.6 C 68.6 297.9 70.6 297.7 72.7 297.2 C 76.9 296.1 80.5 293.8 84.1 291.5 C 84.3 291.4 84.3 291.1 84.2 290.9 C 84 290.8 83.7 290.7 83.5 290.8 Z M 78 311.9 C 73.2 314.1 69.1 315.2 64.7 316.3 L 63.7 316.6 C 58.6 318 53.5 317.1 50.3 314.4 C 46.4 311.2 45.3 305.7 44.8 301.8 C 44.8 301.6 44.6 301.4 44.3 301.4 C 44.1 301.4 43.9 301.6 43.9 301.9 C 44.4 305.9 45.6 311.6 49.7 315 C 51.6 316.6 54 317.6 56.6 317.9 C 58.9 318.2 61.4 318 63.9 317.4 L 64.9 317.1 C 69.3 315.9 73.5 314.8 78.3 312.6 C 78.5 312.5 78.6 312.3 78.5 312 C 78.5 311.9 78.2 311.8 78 311.9 Z " style="stroke: none; stroke-linecap: butt; stroke-width: 1; fill: rgb(19%,60%,49%); fill-rule: evenodd;"/></g></g><g transform=""><g transform=""><path d="M 54.9 307.8 C 54.5 307.6 54.1 307.4 53.7 307.5 C 52.3 307.6 51.8 309.2 51.7 310.5 C 51.7 311.5 51.7 312.6 51.2 313.5 C 51 313.9 50.7 314.2 50.4 314.3 C 49.1 314.9 47.9 313.6 47.8 312.4 C 47.7 311.4 48.1 310.4 48.4 309.4 C 49.2 306.8 49.4 304 48.8 301.3 C 48.5 299.6 47.7 297.8 46 297.2 C 45.1 296.9 44.1 297.1 43.4 297.8 C 42.6 298.7 42.9 299.7 43.2 300.7 C 43.4 301.5 43.7 302.4 43.3 303.1 C 43.1 303.6 42.5 303.9 42 303.8 C 41.5 303.7 41.2 303.2 41 302.7 C 39.7 299.9 37.3 297.5 34.4 296.4 C 32.8 295.8 30.6 295.7 29.9 297.4 C 29.7 297.8 29.7 298.3 29.8 298.8 C 30 299.9 30.7 300.7 31.4 301.5 L 35.2 306 C 35.6 306.4 35.2 307.1 34.7 307 L 30 306.4 C 29.6 306.3 29.1 306.4 28.7 306.6 C 27.4 307.2 27.6 308.5 28.1 309.5 C 29.2 311.6 31.3 313 33.6 313.8 C 35.9 314.5 38.3 314.7 40.6 314.8 C 41.3 314.9 42.1 314.9 42.7 315.5 C 43 315.8 43.2 316.3 43 316.7 C 42.7 317.4 41.9 317.5 41.2 317.4 C 39 317.2 36.9 316.3 34.7 316.9 C 33.9 317.1 33.2 317.5 32.7 318.1 C 31.1 320 32.3 322.2 34 323.1 C 35.8 324.1 37.8 324.3 39.8 324.5 C 43.8 325.1 49.8 326.7 53.1 323.5 C 55 321.6 56.1 318.8 56.6 316.2 C 57 314.3 56.9 312.3 56.4 310.4 C 56.2 309.3 55.8 308.3 54.9 307.8 Z " style="stroke: none; stroke-linecap: butt; stroke-width: 1; fill: rgb(19%,60%,49%); fill-rule: evenodd;"/></g><g transform=""><path d="M 37.5 302.3 C 37.4 302.2 37.2 302.1 37 302.2 C 36.9 302.3 36.8 302.5 36.9 302.7 C 43.4 311 48.8 320.1 52.9 329.9 C 53 330 53.1 330.1 53.2 330.1 L 53.3 330.1 C 53.5 330 53.6 329.8 53.5 329.7 C 49.4 319.8 44 310.6 37.5 302.3 Z " style="stroke: none; stroke-linecap: butt; stroke-width: 1; fill: rgb(38%,80%,69%); fill-rule: evenodd;"/></g><g transform=""><path d="M 45.8 300 C 45.6 300 45.5 300.2 45.5 300.4 C 45.7 301.8 45.8 303.4 45.7 304.9 C 45.6 306 45.2 307.6 44.1 308.9 C 42.7 310.4 40.3 311.1 37.8 310.8 C 35.5 310.5 33.3 309.4 31.2 308.3 C 31 308.2 30.8 308.3 30.7 308.4 C 30.6 308.6 30.7 308.8 30.8 308.9 C 32.9 310 35.1 311.1 37.6 311.5 C 38.1 311.6 38.7 311.6 39.2 311.6 C 41.4 311.6 43.3 310.8 44.5 309.4 C 45.7 308 46.1 306.3 46.2 305 C 46.4 303.4 46.2 301.8 46 300.4 C 46.2 300.1 46 300 45.8 300 Z M 54 311.9 C 53.8 311.9 53.7 312 53.6 312.2 C 53.5 314.4 53.2 317.5 51.3 319.6 C 49.6 321.3 46.9 322.1 43.9 321.6 L 43.3 321.5 C 40.8 321.1 38.3 320.7 35.5 319.8 C 35.3 319.7 35.1 319.8 35.1 320 C 35 320.2 35.1 320.4 35.3 320.4 C 38.2 321.4 40.6 321.8 43.2 322.2 L 43.8 322.3 C 44.5 322.4 45.1 322.5 45.8 322.4 C 48.2 322.4 50.3 321.5 51.8 320.1 C 53.9 317.9 54.3 314.6 54.3 312.3 C 54.3 312.1 54.2 311.9 54 311.9 Z " style="stroke: none; stroke-linecap: butt; stroke-width: 1; fill: rgb(38%,80%,69%); fill-rule: evenodd;"/></g></g><g transform=""><g transform=""><path d="M 64.5 323.8 L 40.1 323.8 C 39.2 323.8 38.6 324.6 38.7 325.5 L 39.6 329.5 C 39.7 330.1 40.3 330.6 41 330.6 L 63.6 330.6 C 64.2 330.6 64.8 330.2 65 329.5 L 65.9 325.5 C 66 324.6 65.4 323.8 64.5 323.8 Z " style="stroke: none; stroke-linecap: butt; stroke-width: 1; fill: rgb(96%,57%,11%); fill-rule: evenodd;"/></g><g transform=""><path d="M 43.3 344.1 C 43.4 345 44.2 345.7 45.2 345.7 L 59.5 345.7 C 60.4 345.7 61.2 345 61.4 344.1 L 63.4 330.5 L 41.5 330.5 L 43.3 344.1 Z " style="stroke: none; stroke-linecap: butt; stroke-width: 1; fill: rgb(94%,35%,14%); fill-rule: evenodd;"/></g></g></g><g transform=""><g transform=""><path d="M 101.7 59.7 L 102.5 55.6 L 96.1 54.9 C 96.2 52.1 95.6 49.5 94.5 47.2 L 99.5 42 L 97.2 39.1 L 91.4 43.2 C 89.5 41.6 87.1 40.4 84.3 40 L 84.7 33.6 L 80.6 33.6 L 78.7 40 C 75.7 40.4 72.9 41.6 70.3 43.2 L 66 39.3 L 62.6 42.2 L 65.7 47.2 C 63.6 49.5 62 52.1 61 55 L 54.4 55.8 L 53.6 59.9 L 59.9 60.6 C 59.8 63.5 60.4 66.1 61.6 68.3 L 56.6 73.5 L 58.9 76.4 L 64.8 72.3 C 66.7 73.9 69.1 75 71.9 75.5 L 71.5 82 L 75.6 82 L 77.5 75.5 C 80.4 75 83.2 73.9 85.7 72.3 L 90.2 76.3 L 93.6 73.4 L 90.4 68.3 C 92.4 66.1 94.1 63.5 95.1 60.7 L 101.7 59.7 Z M 76 67.7 C 70.5 67.7 66.9 63.2 68 57.7 C 69.1 52.2 74.4 47.7 79.9 47.7 C 85.4 47.7 89 52.2 87.9 57.7 C 86.9 63.2 81.5 67.7 76 67.7 Z " style="stroke: none; stroke-linecap: butt; stroke-width: 1; fill: rgb(81%,84%,88%); fill-rule: evenodd;"/></g><g transform=""><path d="M 100.8 57.8 L 101.6 53.7 L 95.2 53 C 95.3 50.2 94.7 47.6 93.6 45.3 L 98.6 40.1 L 96.3 37.2 L 90.5 41.3 C 88.6 39.7 86.2 38.5 83.4 38.1 L 83.8 31.7 L 79.7 31.7 L 77.8 38.1 C 74.8 38.5 72 39.7 69.4 41.3 L 65.1 37.4 L 61.7 40.3 L 64.8 45.3 C 62.7 47.6 61.1 50.2 60.1 53.1 L 53.5 53.9 L 52.7 58 L 59 58.7 C 58.9 61.6 59.5 64.2 60.7 66.4 L 55.7 71.6 L 58 74.5 L 63.9 70.4 C 65.8 72 68.2 73.1 71 73.6 L 70.6 80.1 L 74.7 80.1 L 76.6 73.6 C 79.5 73.1 82.3 72 84.8 70.4 L 89.3 74.4 L 92.7 71.5 L 89.5 66.4 C 91.5 64.2 93.2 61.6 94.2 58.8 L 100.8 57.8 Z M 75.1 65.8 C 69.6 65.8 66 61.3 67.1 55.8 C 68.2 50.3 73.5 45.8 79 45.8 C 84.5 45.8 88.1 50.3 87 55.8 C 86 61.3 80.6 65.8 75.1 65.8 Z " style="stroke: none; stroke-linecap: butt; stroke-width: 1; fill: rgb(91%,92%,94%); fill-rule: evenodd;"/></g></g><g transform=""><g transform=""><path d="M 131.6 53 L 132.1 50.4 L 128.1 50 C 128.2 48.2 127.8 46.6 127.1 45.1 L 130.3 41.8 L 128.8 40 L 125.1 42.6 C 123.9 41.6 122.4 40.8 120.6 40.5 L 120.9 36.4 L 118.2 36.4 L 117 40.4 C 115.1 40.7 113.3 41.4 111.7 42.4 L 109 39.9 L 106.8 41.7 L 108.7 44.8 C 107.4 46.2 106.3 47.9 105.7 49.7 L 101.6 50.2 L 101.1 52.8 L 105.1 53.2 C 105 55 105.4 56.7 106.2 58.1 L 103 61.4 L 104.5 63.2 L 108.2 60.6 C 109.4 61.6 110.9 62.3 112.7 62.6 L 112.4 66.7 L 115 66.7 L 116.2 62.6 C 118 62.3 119.8 61.6 121.4 60.6 L 124.2 63.2 L 126.4 61.4 L 124.4 58.2 C 125.7 56.8 126.7 55.2 127.3 53.4 L 131.6 53 Z M 115.3 58.1 C 111.8 58.1 109.5 55.3 110.2 51.8 C 110.9 48.3 114.3 45.5 117.7 45.5 C 121.2 45.5 123.5 48.3 122.8 51.8 C 122.2 55.2 118.8 58.1 115.3 58.1 Z " style="stroke: none; stroke-linecap: butt; stroke-width: 1; fill: rgb(81%,84%,88%); fill-rule: evenodd;"/></g><g transform=""><path d="M 131 51.8 L 131.5 49.2 L 127.5 48.8 C 127.6 47 127.2 45.4 126.5 43.9 L 129.7 40.6 L 128.2 38.8 L 124.5 41.4 C 123.3 40.4 121.8 39.6 120 39.3 L 120.3 35.2 L 117.7 35.2 L 116.5 39.2 C 114.6 39.5 112.8 40.2 111.2 41.2 L 108.5 38.7 L 106.3 40.5 L 108.2 43.6 C 106.9 45 105.8 46.7 105.2 48.5 L 101.1 49 L 100.6 51.6 L 104.6 52 C 104.5 53.8 104.9 55.5 105.7 56.9 L 102.5 60.2 L 104 62 L 107.7 59.4 C 108.9 60.4 110.4 61.1 112.2 61.4 L 111.9 65.5 L 114.5 65.5 L 115.7 61.4 C 117.5 61.1 119.3 60.4 120.9 59.4 L 123.7 62 L 125.9 60.2 L 123.9 57 C 125.2 55.6 126.2 54 126.8 52.2 L 131 51.8 Z M 114.7 56.8 C 111.2 56.8 108.9 54 109.6 50.5 C 110.3 47 113.7 44.2 117.1 44.2 C 120.6 44.2 122.9 47 122.2 50.5 C 121.6 54 118.2 56.8 114.7 56.8 Z " style="stroke: none; stroke-linecap: butt; stroke-width: 1; fill: rgb(91%,92%,94%); fill-rule: evenodd;"/></g></g><g transform=""><g transform=""><path d="M 371.7 228.1 L 372.5 224 L 366.1 223.3 C 366.2 220.5 365.6 217.9 364.5 215.6 L 369.5 210.4 L 367.2 207.5 L 361.4 211.6 C 359.5 210 357.1 208.8 354.3 208.4 L 354.7 202 L 350.6 202 L 348.7 208.4 C 345.7 208.8 342.9 210 340.3 211.6 L 336 207.7 L 332.6 210.6 L 335.7 215.6 C 333.6 217.9 332 220.5 331 223.4 L 324.4 224.2 L 323.6 228.3 L 329.9 229 C 329.8 231.9 330.4 234.5 331.6 236.7 L 326.6 241.9 L 328.9 244.8 L 334.8 240.7 C 336.7 242.3 339.1 243.4 341.9 243.9 L 341.5 250.4 L 345.6 250.4 L 347.5 243.9 C 350.4 243.4 353.2 242.3 355.7 240.7 L 360.2 244.7 L 363.6 241.8 L 360.4 236.7 C 362.4 234.5 364.1 231.9 365.1 229.1 L 371.7 228.1 Z M 346.1 236.1 C 340.6 236.1 337 231.6 338.1 226.1 C 339.2 220.6 344.5 216.1 350 216.1 C 355.5 216.1 359.1 220.6 358 226.1 C 356.9 231.6 351.6 236.1 346.1 236.1 Z " style="stroke: none; stroke-linecap: butt; stroke-width: 1; fill: rgb(81%,84%,88%); fill-rule: evenodd;"/></g><g transform=""><path d="M 370.8 226.2 L 371.6 222.1 L 365.2 221.4 C 365.3 218.6 364.7 216 363.6 213.7 L 368.6 208.5 L 366.3 205.6 L 360.5 209.7 C 358.6 208.1 356.2 206.9 353.4 206.5 L 353.8 200.1 L 349.7 200.1 L 347.8 206.5 C 344.8 206.9 342 208.1 339.4 209.7 L 335.1 205.8 L 331.7 208.7 L 334.8 213.7 C 332.7 216 331.1 218.6 330.1 221.5 L 323.5 222.3 L 322.7 226.4 L 329 227.1 C 328.9 230 329.5 232.6 330.7 234.8 L 325.7 240 L 328 242.9 L 333.9 238.8 C 335.8 240.4 338.2 241.5 341 242 L 340.6 248.5 L 344.7 248.5 L 346.6 242 C 349.5 241.5 352.3 240.4 354.8 238.8 L 359.3 242.8 L 362.7 239.9 L 359.5 234.8 C 361.5 232.6 363.2 230 364.2 227.2 L 370.8 226.2 Z M 345.1 234.1 C 339.6 234.1 336 229.6 337.1 224.1 C 338.2 218.6 343.5 214.1 349 214.1 C 354.5 214.1 358.1 218.6 357 224.1 C 356 229.7 350.7 234.1 345.1 234.1 Z " style="stroke: none; stroke-linecap: butt; stroke-width: 1; fill: rgb(91%,92%,94%); fill-rule: evenodd;"/></g></g><g transform=""><g transform=""><path d="M 94 175.2 L 54.4 175.2 L 71 108.5 L 110.6 108.5 L 107 123 L 85.5 123 L 82.9 133.5 L 102.9 133.5 L 99.2 148 L 79.2 148 L 76.1 160.6 L 97.7 160.6 L 94 175.2 Z M 129.8 151 L 123.7 175.3 L 105.7 175.3 L 122.3 108.6 L 144.2 108.6 C 162.3 108.6 169.8 115.2 166.5 128.3 C 164.6 136 159.3 142 150.7 146.2 L 162.9 175.3 L 142.5 175.3 L 134.4 151 L 129.8 151 Z M 133.1 137.4 L 136.5 137.4 C 142.8 137.4 146.6 134.6 148 129.1 C 149.1 124.5 146.6 122.2 140.5 122.2 L 136.9 122.2 L 133.1 137.4 Z M 193 151 L 186.9 175.3 L 168.9 175.3 L 185.5 108.6 L 207.4 108.6 C 225.5 108.6 233 115.2 229.7 128.3 C 227.8 136 222.5 142 213.9 146.2 L 226.1 175.3 L 205.7 175.3 L 197.6 151 L 193 151 Z M 196.4 137.4 L 199.8 137.4 C 206.1 137.4 209.9 134.6 211.3 129.1 C 212.4 124.5 209.9 122.2 203.8 122.2 L 200.2 122.2 L 196.4 137.4 Z M 322 151 L 315.9 175.3 L 297.9 175.3 L 314.5 108.6 L 336.4 108.6 C 354.5 108.6 362 115.2 358.7 128.3 C 356.8 136 351.5 142 342.9 146.2 L 355.1 175.3 L 334.7 175.3 L 326.6 151 L 322 151 Z M 325.4 137.4 L 328.8 137.4 C 335.1 137.4 338.9 134.6 340.3 129.1 C 341.4 124.5 338.9 122.2 332.8 122.2 L 329.2 122.2 L 325.4 137.4 Z " style="stroke: none; stroke-linecap: butt; stroke-width: 1; fill: rgb(81%,84%,88%); fill-rule: evenodd;"/></g><g transform=""><g transform=""><path d="M 91.2 173.1 L 51.6 173.1 L 68.2 106.4 L 107.8 106.4 L 104.2 120.9 L 82.7 120.9 L 80.1 131.4 L 100.1 131.4 L 96.5 145.9 L 76.5 145.9 L 73.4 158.5 L 95 158.5 L 91.2 173.1 Z M 127 148.8 L 120.9 173.1 L 102.9 173.1 L 119.5 106.4 L 141.4 106.4 C 159.5 106.4 167 113 163.7 126.1 C 161.8 133.8 156.5 139.8 147.9 144 L 160.1 173.1 L 139.7 173.1 L 131.6 148.8 L 127 148.8 Z M 130.4 135.2 L 133.8 135.2 C 140.1 135.2 143.9 132.4 145.3 126.9 C 146.4 122.3 143.9 120 137.8 120 L 134.2 120 L 130.4 135.2 Z M 190.2 148.8 L 184.1 173.1 L 166.1 173.1 L 182.7 106.4 L 204.6 106.4 C 222.7 106.4 230.2 113 226.9 126.1 C 225 133.8 219.7 139.8 211.1 144 L 223.3 173.1 L 202.9 173.1 L 194.8 148.8 L 190.2 148.8 Z M 193.6 135.2 L 197 135.2 C 203.3 135.2 207.1 132.4 208.5 126.9 C 209.6 122.3 207.1 120 201 120 L 197.4 120 L 193.6 135.2 Z M 319.2 148.8 L 313.1 173.1 L 295.1 173.1 L 311.7 106.4 L 333.6 106.4 C 351.7 106.4 359.2 113 355.9 126.1 C 354 133.8 348.7 139.8 340.1 144 L 352.3 173.1 L 331.9 173.1 L 323.8 148.8 L 319.2 148.8 Z M 322.6 135.2 L 326 135.2 C 332.3 135.2 336.1 132.4 337.5 126.9 C 338.6 122.3 336.1 120 330 120 L 326.4 120 L 322.6 135.2 Z " style="stroke: none; stroke-linecap: butt; stroke-width: 1; fill: rgb(91%,92%,94%); fill-rule: evenodd;"/></g></g></g></g><g transform=""><g transform=""><path d="M 234.2 125.6 C 234.7 125.3 235.2 124.9 235.8 124.8 C 238.5 124.5 241.2 124.2 243.8 124 C 245.8 123.8 247.5 124.6 248.7 126.2 C 249.7 127.5 250.8 128.8 251.7 130.2 C 252.6 131.5 253.5 131.6 254.8 130.9 C 256.5 130 258.1 129.1 259.9 128.5 C 263.8 127.1 267.1 130 266.3 134 C 263.8 146.3 261.2 158.5 258.7 170.8 C 258.2 173 256.6 173.6 254.9 172.1 C 252 169.4 250.4 165.9 248.7 162.4 C 248.1 161.1 247.5 159.8 246.5 158.8 C 244.1 156.3 241.5 156.5 239.4 159.1 C 237.9 160.9 236.3 162.8 234.8 164.6 C 234 165.5 233.2 166.1 232.1 165.2 C 231.1 164.3 231.4 163.4 232.2 162.5 C 233.9 160.5 235.5 158.4 237.2 156.4 C 239.3 154 241.9 152.8 245.1 154 C 246 154.4 246.4 153.9 246.4 153 C 246.4 151.2 246.5 149.4 246.6 147.7 C 246.7 146.4 246.2 145.5 244.9 145.3 C 241.8 144.7 238.7 144 235.6 143.4 C 234.2 143.1 233.6 142.3 234 141.2 C 234.3 140.1 235.1 139.9 236.2 140.1 C 239.2 140.7 242.2 141.4 245.2 142 C 246.9 142.3 247.8 141.8 248.3 140.2 C 248.7 138.9 249.2 137.6 249.9 136.4 C 250.5 135.4 250.4 134.5 249.8 133.5 C 248.7 131.9 247.7 130.4 246.6 128.9 C 245.8 127.7 244.6 127.3 243.1 127.5 C 241 127.7 238.8 127.9 236.7 128.2 C 235.4 128.4 234.5 128.1 233.9 126.9 C 234.1 126.4 234.2 126 234.2 125.6 Z M 301.3 140.8 C 300.2 141.7 299.2 141.5 298.1 140.8 C 296.4 139.7 294.7 138.8 293 137.8 C 291.6 136.9 290.1 136.9 288.7 137.7 C 287.2 138.6 285.6 139.4 284.3 140.4 C 283.6 141 283.1 142 282.9 142.9 C 282.7 144.4 282.8 146 282.7 147.6 C 282.7 148.9 283.3 149.8 284.7 150.1 L 293.4 151.9 C 294.6 152.1 295.6 152.5 295.4 154 C 295.2 155.2 294.3 155.6 292.6 155.2 C 289.9 154.6 287.1 154 284.4 153.5 C 282.4 153.1 281.8 153.5 281.1 155.3 C 280.5 156.8 279.9 158.2 279.3 159.7 C 278.9 160.7 279 161.2 280.2 161.4 C 283.7 161.8 285.6 163.8 286.5 167.1 C 287.1 169.4 287.8 171.6 288.5 173.8 C 288.8 175 289.2 176.1 287.6 176.7 C 286.4 177.1 285.8 176.5 285.2 174.7 C 284.6 172.5 283.9 170.3 283.3 168.1 C 282.4 165.2 280.6 164 277.6 164.9 C 276.5 165.2 275.5 165.8 274.6 166.5 C 272.2 168.4 270 170.5 267.5 172.3 C 266.4 173.1 265.1 173.8 263.8 174.1 C 261.5 174.6 260.5 173.4 261 171.1 C 261.8 167.1 262.7 163 263.5 159 C 265.1 151.1 266.8 143.2 268.4 135.2 C 269.4 130.4 273.5 129.1 277.1 132.4 C 278.1 133.3 279 134.5 279.8 135.7 C 281.2 137.7 281.8 137.8 284 136.6 C 285.1 136 286.2 135.4 287.3 134.7 C 289.6 133.3 291.8 133.4 294.1 134.7 C 296.2 135.9 298.3 137 300.3 138.3 C 300.8 138.6 301.1 139.2 301.4 139.6 C 301.5 140 301.4 140.4 301.3 140.8 Z " style="stroke: none; stroke-linecap: butt; stroke-width: 1; fill: rgb(81%,84%,88%); fill-rule: evenodd;"/></g><g transform=""><path d="M 258 126.7 C 258.4 123.8 259.5 121.5 261.8 119.8 C 263 118.9 263.1 117.9 262.5 116.8 C 260.7 113.2 257.7 111.1 253.9 110.1 C 252.5 109.8 251.1 109.6 249.7 109.2 C 249.3 109.1 249 108.4 248.7 108 C 249.2 107.7 249.7 107.1 250 107.2 C 253.2 108.1 256.4 109 259.4 110.3 C 262 111.4 263.6 113.8 264.7 116.4 C 265.1 117.4 265.6 117.8 266.8 117.6 C 269.8 116.9 272.6 117.5 275.1 119.3 C 275.9 119.8 276.4 120 277.2 119.3 C 280.9 115.7 285.4 114.9 290.3 115.6 C 291.6 115.8 292.8 116.1 294 116.4 C 294.8 116.6 295.6 116.8 295.3 117.8 C 295.1 118.8 294.2 118.7 293.5 118.5 C 291.6 118.2 289.8 117.7 287.9 117.6 C 284.4 117.3 281.4 118.5 278.8 120.7 C 277.9 121.4 277.8 122.1 278.4 123.1 C 279.9 125.6 280 128.3 279.3 131.3 C 273.1 125.5 266 124 258 126.7 Z " style="stroke: none; stroke-linecap: butt; stroke-width: 1; fill: rgb(81%,84%,88%); fill-rule: evenodd;"/></g></g><g transform=""><g transform=""><path d="M 233.2 123.6 C 233.7 123.3 234.2 122.9 234.8 122.8 C 237.5 122.5 240.2 122.2 242.8 122 C 244.8 121.8 246.5 122.6 247.7 124.2 C 248.7 125.5 249.8 126.8 250.7 128.2 C 251.6 129.5 252.5 129.6 253.8 128.9 C 255.5 128 257.1 127.1 258.9 126.5 C 262.8 125.1 266.1 128 265.3 132 C 262.8 144.3 260.2 156.5 257.7 168.8 C 257.2 171 255.6 171.6 253.9 170.1 C 251 167.4 249.4 163.9 247.7 160.4 C 247.1 159.1 246.5 157.8 245.5 156.8 C 243.1 154.3 240.5 154.5 238.4 157.1 C 236.9 158.9 235.3 160.8 233.8 162.6 C 233 163.5 232.2 164.1 231.1 163.2 C 230.1 162.3 230.4 161.4 231.2 160.5 C 232.9 158.5 234.5 156.4 236.2 154.4 C 238.3 152 240.9 150.8 244.1 152 C 245 152.4 245.4 151.9 245.4 151 C 245.4 149.2 245.5 147.4 245.6 145.7 C 245.7 144.4 245.2 143.5 243.9 143.3 C 240.8 142.7 237.7 142 234.6 141.4 C 233.2 141.1 232.6 140.3 233 139.2 C 233.3 138.1 234.1 137.9 235.2 138.1 C 238.2 138.7 241.2 139.4 244.2 140 C 245.9 140.3 246.8 139.8 247.3 138.2 C 247.7 136.9 248.2 135.6 248.9 134.4 C 249.5 133.4 249.4 132.5 248.8 131.5 C 247.7 129.9 246.7 128.4 245.6 126.9 C 244.8 125.7 243.6 125.3 242.1 125.5 C 240 125.7 237.8 125.9 235.7 126.2 C 234.4 126.4 233.5 126.1 232.9 124.9 C 233.1 124.4 233.2 124 233.2 123.6 Z M 300.3 138.8 C 299.2 139.7 298.2 139.5 297.1 138.8 C 295.4 137.7 293.7 136.8 292 135.8 C 290.6 134.9 289.1 134.9 287.7 135.7 C 286.2 136.6 284.6 137.4 283.3 138.4 C 282.6 139 282.1 140 281.9 140.9 C 281.7 142.4 281.8 144 281.7 145.6 C 281.7 146.9 282.3 147.8 283.7 148.1 L 292.4 149.9 C 293.6 150.1 294.6 150.5 294.4 152 C 294.2 153.2 293.3 153.6 291.6 153.2 C 288.9 152.6 286.1 152 283.4 151.5 C 281.4 151.1 280.8 151.5 280.1 153.3 C 279.5 154.8 278.9 156.2 278.3 157.7 C 277.9 158.7 278 159.2 279.2 159.4 C 282.7 159.8 284.6 161.8 285.5 165.1 C 286.1 167.4 286.8 169.6 287.5 171.8 C 287.8 173 288.2 174.1 286.6 174.7 C 285.4 175.1 284.8 174.5 284.2 172.7 C 283.6 170.5 282.9 168.3 282.3 166.1 C 281.4 163.2 279.6 162 276.6 162.9 C 275.5 163.2 274.5 163.8 273.6 164.5 C 271.2 166.4 269 168.5 266.5 170.3 C 265.4 171.1 264.1 171.8 262.8 172.1 C 260.5 172.6 259.5 171.4 260 169.1 C 260.8 165.1 261.7 161 262.5 157 C 264.1 149.1 265.8 141.2 267.4 133.2 C 268.4 128.4 272.5 127.1 276.1 130.4 C 277.1 131.3 278 132.5 278.8 133.7 C 280.2 135.7 280.8 135.8 283 134.6 C 284.1 134 285.2 133.4 286.3 132.7 C 288.6 131.3 290.8 131.4 293.1 132.7 C 295.2 133.9 297.3 135 299.3 136.3 C 299.8 136.6 300.1 137.2 300.4 137.6 C 300.5 138 300.4 138.4 300.3 138.8 Z " style="stroke: none; stroke-linecap: butt; stroke-width: 1; fill: rgb(91%,92%,94%); fill-rule: evenodd;"/></g><g transform=""><path d="M 257 124.7 C 257.4 121.8 258.5 119.5 260.8 117.8 C 262 116.9 262.1 115.9 261.5 114.8 C 259.7 111.2 256.7 109.1 252.9 108.1 C 251.5 107.8 250.1 107.6 248.7 107.2 C 248.3 107.1 248 106.4 247.7 106 C 248.2 105.7 248.7 105.1 249 105.2 C 252.2 106.1 255.4 107 258.4 108.3 C 261 109.4 262.6 111.8 263.7 114.4 C 264.1 115.4 264.6 115.8 265.8 115.6 C 268.8 114.9 271.6 115.5 274.1 117.3 C 274.9 117.8 275.4 118 276.2 117.3 C 279.9 113.7 284.4 112.9 289.3 113.6 C 290.6 113.8 291.8 114.1 293 114.4 C 293.8 114.6 294.6 114.8 294.3 115.8 C 294.1 116.8 293.2 116.7 292.5 116.5 C 290.6 116.2 288.8 115.7 286.9 115.6 C 283.4 115.3 280.4 116.5 277.8 118.7 C 276.9 119.4 276.8 120.1 277.4 121.1 C 278.9 123.6 279 126.3 278.3 129.3 C 272.1 123.5 265 122 257 124.7 Z " style="stroke: none; stroke-linecap: butt; stroke-width: 1; fill: rgb(91%,92%,94%); fill-rule: evenodd;"/></g></g></g></g></g></svg>