<svg id="Ebene_1" xmlns="http://www.w3.org/2000/svg" viewBox="0 0 482.6 355.4"><style>.st0{fill:#e0e4f1}.st1{fill:#63cdb0}.st2{fill:#31997d}.st3{fill:#f7931e}.st4{fill:#f15a24}.st5{fill:#cfd8e2}.st6{fill:#e9edf2}</style><g id="layer_1"><ellipse id="Shadow_2_" class="st0" cx="52.2" cy="345.6" rx="17.4" ry="2.5"/><ellipse id="Shadow_4_" class="st0" cx="398.6" cy="345.6" rx="21.1" ry="2.5"/><ellipse id="Shadow_3_" class="st0" cx="205.8" cy="346.2" rx="115.1" ry="3.1"/><path class="st1" d="M420.5 159.2c-3.5-2.6-8-5-13.2-7.3-5.1-2.3-10.7-4.5-16.3-6.8-5.6-2.3-25.5-12.1-28.7-15 24.8 24.6 41.4 67.4 62.8 50.1 8-6.5 2.3-15.8-4.6-21zM396.6 187.5c-5.8-1-12.1-.9-18-.1-5.4.8-10.5 2.1-14.8 3.8 2.8-.9 6.7-.3 11.2 1.1 10.7 2.1 18.5 9.9 26.4 16.8 4.9 2.9 8.8 8.8 15.7 5.9 6.9-2 1-14.7-5.1-20.7-4.3-3.7-9.6-5.8-15.4-6.8zM363.8 191.2c-.4.1-.8.3-1.2.5.4-.2.8-.3 1.2-.5zM464.3 203.1c-6.4-3.1-16.3-3.1-19.9-1.9-11.2 3.8-15.7 13.4-9.8 20.3 5.9 8.8 28.4-9.8 47 8.6 1-9.2-3.2-20.2-17.3-27zM391.6 222.8c-7.8-2-16.6-2-23.9 2.5 7.7-3.8 15.1 1.2 21.4 7.8 6.5 7.3 12.4 24.9 20.2 15.2 7.7-9.8-7-22.6-17.7-25.5zM445.4 254.2c-4.7-.8-8.8-.2-12 1.8-9.3 5.9-11.1 16.7-1.7 19.3 4.5 1.3 9.3-2.5 14-5.2s9.5-4.7 14.4-1.3c-1.4-8.6-5.4-13.1-14.7-14.6zM372.5 248.3c1.4-.3 4.6 7.3 8.6 15.9 3.6 5.6 3.6 12.4 8.5 17.3 3.9 3.9 10.8 3.9 10.8-1 .9-14.6-8.8-37.2-27.9-32.2zM441.1 298.3c-4.6-.3-8.7-.8-13.2-2.5-6-2.2-13.9 1.2-11.2 8.7 3.8 10.8 16.7 11 25.8 7.3 9.3-3.7 12.7 2.7 12.7 2.7s1.9-15-14.1-16.2z"/><path class="st2" d="M422.9 240.2c.7-4.4 1.4-11.5 1.9-15.9 1.6-13.2 4.5-32.7.3-44-2.8-7.5-15.9-20.7-23.7-22.4 6.5 3.1 20.8 17.1 22.4 23 3.3 10.9 1.7 20.7.8 31.7-.4 5.5-1.1 11-1.6 16.5s-4 19.4-4 19.4c4-36.5-13.6-50.1-24-54.5-3.8-1.6-7.6-1.7-11.6-2.1-.2 0-.3.2-.1.2 5.7.2 11.2 2.3 16.2 5.5 4.3 3.2 7.7 7 10.4 11.2 2.7 4.1 4.8 8.7 6.3 13.5 6.9 19.3-3.1 39.1-8 58.7 1.1-13.6.7-26.2-3.2-39-1.6-5.1-8.4-14.9-14.2-17 25.5 17.6 14.9 54.9 12 81.4-4-14-10.2-39.8-16.9-49.1 6.9 22.5 22.1 53.1 9.8 72.4 4.9-7.8 8.2-2.6 8.2-2.6s.2-16.1 2.2-17c7.5-3.3 23.9-9.8 32.7-3.9-9.8-7.8-33.7.9-33.7.9s17.1-30.2 29.8-39.4c4.4-3.1 9.1-5.7 13.7-7.4-7.9 1.6-12 3.4-16 7.5-6.6 6.2-15.5 16.8-24.5 27.1 2.9-18.6 12.9-47 22.5-62.6 2.5-4.2 15.7-32.8 30.7-21-19.5-17.6-35.5 26.4-38.4 28.9z"/><g><path class="st1" d="M307.2 167c4 1.2 11 5.7 15.3 14.3 6.5 12.9 20.1 24.6 35.9 24.8-12.5-19.5-6.1-29.6-51.2-39.1zM347.1 210.8c-10.8-1.9-23 .4-30.8 8.3 1.8-2 8.5-2.3 12.2-1.8 14 1 20.7 24.9 33 12.3 7.9-7.9-6.6-17.4-14.4-18.8zM388.9 202.2c-12.6 1.8-12.9 17.2-9.5 19.4 6.6 4.4 9.5-6.3 18.6-8 3-.6 10.5 1.4 13.3 2.7-7.3-3.9-6.3-16.3-22.4-14.1zM365.3 243.3c-4.8-3.3-11.5-5.7-16.7-6.3-8.3.3-13.6 5.7-17.4 11.8 3.6-6.1 11.4-4.3 19.4-1 6.8 2.9 15.5 10 19.5 6.4 2.8-3.5 0-7.6-4.8-10.9zM395.1 233.2c-5.9 2.6-9.6 9.2-9.5 14.9 0 5.7 3.7 12.1 10.5 8.4 4.5-2.5 2-6.4 5.2-11.5 3.2-5.2 7.4-9.4 10.4-5.7-4.3-6.7-9.9-8.5-16.6-6.1zM345.5 266.1c7.3.3 8.7 2.8 12.5 10.5 4.6 9.3 11.5 15.8 18.5 11.2 3.7-2.4.9-12-2.8-16.2-6.4-7.3-18.6-12.6-28.2-5.5zM396.5 292.6c5.1 5.2 12.1 2.9 16.4-.4 4.3-3.4 5.9-18.1 5.9-18.1s-11.4 5.6-18.6 7c-4.9 1.5-8.5 6.5-3.7 11.5z"/><path class="st2" d="M393.2 296.9c-3.7 6.7-4 .8-4.1-4.1-.2-12.3-1.7-44.3 12.6-56-14.9 7.8-12 28.6-14.6 43.8-1.4-20-21.9-65.7 7.8-73.4-14.9.9-18.6 16.9-17.1 31.4-6.7-15.8-18-35.2-32.4-45.1 15 12.9 26.9 37.8 33.3 55.5-8.7-16.1-31-35.1-47.7-33.3-.1 0-.2.2-.1.2 29 1.3 53.3 35 54.3 63.8-5-6.6-14.3-39.6-38.5-38.6 24.5 1.4 39.7 41.2 41.6 63.2-6.5-10.5-14-19.9-20.7-28.7-2.5-3.3-6-6.8-9.7-8.3 15.6 16 34.1 45.8 33.4 59l3.3-.8s-10.2-27.3 15.5-42c-9-.3-14.1 8.2-16.9 13.4z"/></g><g><path class="st3" d="M417.4 312H380c-1.4 0-2.4 1.3-2.1 2.6l1.4 6.1c.2 1 1.1 1.7 2.1 1.7h34.7c1 0 1.9-.7 2.1-1.7l1.4-6.1c.2-1.3-.8-2.6-2.2-2.6z"/><path class="st4" d="M384.9 343.3c.2 1.4 1.4 2.5 2.8 2.5h21.9c1.4 0 2.6-1.1 2.9-2.5l3-20.9h-33.6l3 20.9z"/></g><g><path class="st5" d="M401.5 7.5H56.8c-11.7 0-21.4 8.9-22.4 20.5L15.2 247.9c-1.1 13.1 9.2 24.4 22.4 24.4h344.7c11.7 0 21.4-8.9 22.4-20.5l19.2-219.9c1.1-13.1-9.2-24.4-22.4-24.4z"/><path class="st6" d="M392.5 7.5H47.6C36 7.5 26.3 16.4 25.3 28L6.1 248.1c-.2 2.2-.1 4.4.4 6.5 2.1 10.1 11 17.8 21.9 17.8h344.9c11.6 0 21.3-8.9 22.3-20.4l19.2-220.1c1.1-13.1-9.2-24.4-22.3-24.4z"/><path d="M392.5 20.9H47.6c-4.7 0-8.6 3.5-9 8.2L19.4 249.2c-.3 3.4 1.3 5.8 2.3 6.8 1 1.1 3.2 2.9 6.6 2.9h344.9c4.7 0 8.6-3.5 9-8.2l19.2-220c.3-3.4-1.3-5.8-2.3-6.9-1-1.1-3.2-2.9-6.6-2.9z" fill="#fff"/><path class="st5" d="M23.4 252.2L42.6 32.1c.4-4.7 4.3-8.2 9-8.2h344.8c1.2 0 2.3.2 3.2.6-.2-.3-.4-.5-.5-.7-1-1.1-3.2-2.9-6.6-2.9H47.6c-4.7 0-8.6 3.5-9 8.2L19.4 249.2c-.3 3.4 1.3 5.8 2.3 6.8.6.7 1.8 1.7 3.5 2.3-.9-1.2-2-3.3-1.8-6.1z"/><path class="st6" d="M126.9 339c0 3.7 3 6.7 6.7 6.7h75.8v-13.4h-75.8c-3.7 0-6.7 3-6.7 6.7zM247.3 272.1h-76.5l-2.5 25.5c-.4 3.9 1 7.7 3.7 10.4l24.3 24.3h74.1l-24.2-29.2 1.1-31z"/><path class="st5" d="M169.8 283.3H247l.3-11.2h-76.4z"/><path class="st5" d="M254.6 298.5l2.7-26.5h-13.4l-2.5 25.5c-.4 3.9 1 7.7 3.7 10.4l24.3 24.3h-62.8a6.7 6.7 0 0 0 0 13.4h63.8c6.1 0 11.4-4.2 12.7-10.3.9-4.4-.7-9-3.9-12.2l-24.6-24.6z"/></g><g><path class="st1" d="M80.1 283.1c-3.8-1.5-7.1 1.8-9 5.1-1.5 2.5-2.7 5.2-5.2 6.9-1 .6-2.1 1-3.3 1-4.3-.1-5.4-4.9-4-8.1 1.2-2.7 3.5-4.7 5.7-6.9 5.5-5.5 9.6-12.5 11.8-20 1.3-4.7 1.8-10.2-1.8-14-1.9-2-4.8-2.8-7.4-1.8-3.1 1.3-3.7 4.3-4.2 7.1-.4 2.3-.9 4.8-2.9 6.3-1.3.9-3.1 1.1-4.3 0-1.2-1-1.1-2.6-1-4 .5-8.9-2.6-17.9-8.5-24.6-3.2-3.6-8.8-6.7-12.8-3.4-1 .8-1.7 2-2.1 3.3-.9 3-.2 6.1.5 9.1l3.8 16.3c.4 1.5-1.4 2.7-2.7 1.8l-11.3-7.8c-1.1-.7-2.3-1.2-3.5-1.3-4.2-.3-5.4 3.3-5.4 6.4-.1 6.8 3.5 13.2 8.3 18s10.8 8.3 16.6 11.9c1.8 1.1 3.7 2.3 4.4 4.4.4 1.2.1 2.6-.8 3.4-1.6 1.4-3.9.4-5.6-.7-5.2-3.4-9.5-8.3-15.9-9.7-2.3-.5-4.6-.4-6.8.4-6.7 2.7-6.3 9.8-3.2 14.3 3.3 4.8 8.3 8 13 11.3 9.4 6.7 22.6 18.7 35.3 14.9 7.4-2.2 14-7.9 18.7-13.8 3.5-4.4 6-9.5 7.2-14.9.6-2.8.9-5.7-.6-8.3-.9-1.2-1.8-2.1-3-2.6z"/><path class="st2" d="M44.4 248.8c-.2 0-.3.2-.3.4 5.7 29.6 7.4 59.9 5 90 0 .2.1.3.3.4.2 0 .3-.1.3-.3 2.3-30.2.6-60.6-5.1-90.2.1-.3 0-.4-.2-.3z"/><path class="st2" d="M69.4 254.6c-.2-.1-.4 0-.4.2-1.4 3.8-3.1 8-5.5 11.7-1.8 2.8-5 6.5-9.6 8.2-5.7 2.2-13.1.8-19.2-3.5-5.6-4-9.7-9.6-13.6-15.1-.1-.1-.3-.2-.5-.1-.1.1-.2.3-.1.5 4 5.5 8.1 11.2 13.8 15.3 4.3 3.1 9.2 4.7 13.8 4.7 2.1 0 4.1-.3 6-1.1 4.8-1.8 8-5.6 9.9-8.5 2.5-3.7 4.1-8 5.5-11.8.2-.3.1-.4-.1-.5zM74.2 295.6c-3.1 5.5-8.2 13.2-16.1 15.9-6.8 2.3-15 .5-22.1-4.7l-1.4-1c-6-4.4-11.7-8.5-17.6-14.6-.1-.1-.3-.1-.5 0-.1.1-.1.3 0 .5 6 6.1 11.7 10.3 17.7 14.7l1.4 1c5.2 3.8 11 5.8 16.4 5.8 2.2 0 4.3-.3 6.3-1 8.1-2.7 13.3-10.5 16.4-16.2.1-.2 0-.4-.1-.5-.1-.2-.4-.1-.4.1z"/><g><path class="st1" d="M87.5 287.1c-.7-.2-1.5-.2-2.3-.1l-8.2 1.9c-1 .2-1.7-.8-1.1-1.7l5.8-8.5c1.1-1.6 2.1-3.1 2.3-5.1.1-.8-.1-1.6-.5-2.4-1.5-2.8-5.4-2.3-8-.9-4.9 2.5-8.7 7-10.4 12.2-.3.8-.5 1.8-1.5 2.1-.9.3-1.9-.2-2.4-1-.8-1.3-.6-2.8-.3-4.3.3-1.7.2-4.2-.8-5-.9-.7-3.5-1-4.6-.6-2 .8-3.9 4.6-4.2 7.7-.5 4.8.3 9.7 2.2 14.1.7 1.7 1.6 3.4 1.7 5.2 0 2.2-1.7 4.7-4.1 3.8-.7-.2-1.2-.7-1.6-1.3-1.1-1.5-1.1-3.4-1.4-5.1-.3-2.3-1.5-5-4-4.9-.8 0-1.5.3-2.1.8-1.4 1.2-1.9 2.9-2.2 4.6-.5 3.4-.3 6.9.7 10.2 1.3 4.5 3.8 9.2 7.5 12.1 6.4 5 16.4 2.6 23.3.9 3.4-.9 7.1-3.1 10.1-5.1 2.8-1.9 4.6-5.9 1.4-9-1-1-2.4-1.6-3.8-1.8-3.9-.6-7.5 1.2-11.2 2-1.2.3-2.7.3-3.3-.9-.4-.7-.2-1.5.3-2.2.8-1.1 2.2-1.4 3.5-1.6 4.1-.7 8.3-1.4 12.1-3.1s7.3-4.6 8.8-8.5c.6-1.3.7-3.7-1.7-4.5z"/><path class="st2" d="M72.2 281.4c-.2-.1-.5-.1-.6.1-9.9 15.8-17.7 32.9-23.2 50.8-.1.2.1.5.3.5h.1c.2 0 .4-.1.5-.3 5.5-17.8 13.2-34.9 23.1-50.6 0-.1 0-.3-.2-.5z"/><path class="st2" d="M83.5 290.8c-3.5 2.3-7 4.6-11.1 5.6-4.4 1.1-8.8.3-11.5-2.2-2.2-2-3.1-4.8-3.5-6.8-.5-2.6-.5-5.4-.5-7.9 0-.2-.2-.4-.4-.4s-.4.2-.4.4c0 2.5-.1 5.4.5 8.1.4 2.1 1.4 5.1 3.8 7.2 1.6 1.5 3.9 2.4 6.3 2.8 1.9.3 3.9.1 6-.4 4.2-1.1 7.8-3.4 11.4-5.7.2-.1.2-.4.1-.6-.2-.1-.5-.2-.7-.1zM78 311.9c-4.8 2.2-8.9 3.3-13.3 4.4l-1 .3c-5.1 1.4-10.2.5-13.4-2.2-3.9-3.2-5-8.7-5.5-12.6 0-.2-.2-.4-.5-.4-.2 0-.4.2-.4.5.5 4 1.7 9.7 5.8 13.1 1.9 1.6 4.3 2.6 6.9 2.9 2.3.3 4.8.1 7.3-.5l1-.3c4.4-1.2 8.6-2.3 13.4-4.5.2-.1.3-.3.2-.6 0-.1-.3-.2-.5-.1z"/></g><g><path class="st2" d="M54.9 307.8c-.4-.2-.8-.4-1.2-.3-1.4.1-1.9 1.7-2 3 0 1 0 2.1-.5 3-.2.4-.5.7-.8.8-1.3.6-2.5-.7-2.6-1.9-.1-1 .3-2 .6-3 .8-2.6 1-5.4.4-8.1-.3-1.7-1.1-3.5-2.8-4.1-.9-.3-1.9-.1-2.6.6-.8.9-.5 1.9-.2 2.9.2.8.5 1.7.1 2.4-.2.5-.8.8-1.3.7-.5-.1-.8-.6-1-1.1-1.3-2.8-3.7-5.2-6.6-6.3-1.6-.6-3.8-.7-4.5 1-.2.4-.2.9-.1 1.4.2 1.1.9 1.9 1.6 2.7l3.8 4.5c.4.4 0 1.1-.5 1l-4.7-.6c-.4-.1-.9 0-1.3.2-1.3.6-1.1 1.9-.6 2.9 1.1 2.1 3.2 3.5 5.5 4.3 2.3.7 4.7.9 7 1 .7.1 1.5.1 2.1.7.3.3.5.8.3 1.2-.3.7-1.1.8-1.8.7-2.2-.2-4.3-1.1-6.5-.5-.8.2-1.5.6-2 1.2-1.6 1.9-.4 4.1 1.3 5 1.8 1 3.8 1.2 5.8 1.4 4 .6 10 2.2 13.3-1 1.9-1.9 3-4.7 3.5-7.3.4-1.9.3-3.9-.2-5.8-.2-1.1-.6-2.1-1.5-2.6z"/><path class="st1" d="M37.5 302.3c-.1-.1-.3-.2-.5-.1-.1.1-.2.3-.1.5 6.5 8.3 11.9 17.4 16 27.2.1.1.2.2.3.2h.1c.2-.1.3-.3.2-.4-4.1-9.9-9.5-19.1-16-27.4z"/><path class="st1" d="M45.8 300c-.2 0-.3.2-.3.4.2 1.4.3 3 .2 4.5-.1 1.1-.5 2.7-1.6 4-1.4 1.5-3.8 2.2-6.3 1.9-2.3-.3-4.5-1.4-6.6-2.5-.2-.1-.4 0-.5.1-.1.2 0 .4.1.5 2.1 1.1 4.3 2.2 6.8 2.6.5.1 1.1.1 1.6.1 2.2 0 4.1-.8 5.3-2.2 1.2-1.4 1.6-3.1 1.7-4.4.2-1.6 0-3.2-.2-4.6.2-.3 0-.4-.2-.4zM54 311.9c-.2 0-.3.1-.4.3-.1 2.2-.4 5.3-2.3 7.4-1.7 1.7-4.4 2.5-7.4 2l-.6-.1c-2.5-.4-5-.8-7.8-1.7-.2-.1-.4 0-.4.2-.1.2 0 .4.2.4 2.9 1 5.3 1.4 7.9 1.8l.6.1c.7.1 1.3.2 2 .1 2.4 0 4.5-.9 6-2.3 2.1-2.2 2.5-5.5 2.5-7.8 0-.2-.1-.4-.3-.4z"/></g><g><path class="st3" d="M64.5 323.8H40.1c-.9 0-1.5.8-1.4 1.7l.9 4c.1.6.7 1.1 1.4 1.1h22.6c.6 0 1.2-.4 1.4-1.1l.9-4c.1-.9-.5-1.7-1.4-1.7z"/><path class="st4" d="M43.3 344.1c.1.9.9 1.6 1.9 1.6h14.3c.9 0 1.7-.7 1.9-1.6l2-13.6H41.5l1.8 13.6z"/></g></g><g><path class="st5" d="M101.7 59.7l.8-4.1-6.4-.7c.1-2.8-.5-5.4-1.6-7.7l5-5.2-2.3-2.9-5.8 4.1c-1.9-1.6-4.3-2.8-7.1-3.2l.4-6.4h-4.1L78.7 40c-3 .4-5.8 1.6-8.4 3.2L66 39.3l-3.4 2.9 3.1 5C63.6 49.5 62 52.1 61 55l-6.6.8-.8 4.1 6.3.7c-.1 2.9.5 5.5 1.7 7.7l-5 5.2 2.3 2.9 5.9-4.1c1.9 1.6 4.3 2.7 7.1 3.2l-.4 6.5h4.1l1.9-6.5c2.9-.5 5.7-1.6 8.2-3.2l4.5 4 3.4-2.9-3.2-5.1c2-2.2 3.7-4.8 4.7-7.6l6.6-1zm-25.7 8c-5.5 0-9.1-4.5-8-10s6.4-10 11.9-10 9.1 4.5 8 10c-1 5.5-6.4 10-11.9 10z"/><path class="st6" d="M100.8 57.8l.8-4.1-6.4-.7c.1-2.8-.5-5.4-1.6-7.7l5-5.2-2.3-2.9-5.8 4.1c-1.9-1.6-4.3-2.8-7.1-3.2l.4-6.4h-4.1l-1.9 6.4c-3 .4-5.8 1.6-8.4 3.2l-4.3-3.9-3.4 2.9 3.1 5c-2.1 2.3-3.7 4.9-4.7 7.8l-6.6.8-.8 4.1 6.3.7c-.1 2.9.5 5.5 1.7 7.7l-5 5.2 2.3 2.9 5.9-4.1c1.9 1.6 4.3 2.7 7.1 3.2l-.4 6.5h4.1l1.9-6.5c2.9-.5 5.7-1.6 8.2-3.2l4.5 4 3.4-2.9-3.2-5.1c2-2.2 3.7-4.8 4.7-7.6l6.6-1zm-25.7 8c-5.5 0-9.1-4.5-8-10s6.4-10 11.9-10 9.1 4.5 8 10c-1 5.5-6.4 10-11.9 10z"/></g><g><path class="st5" d="M131.6 53l.5-2.6-4-.4c.1-1.8-.3-3.4-1-4.9l3.2-3.3-1.5-1.8-3.7 2.6c-1.2-1-2.7-1.8-4.5-2.1l.3-4.1h-2.7l-1.2 4c-1.9.3-3.7 1-5.3 2l-2.7-2.5-2.2 1.8 1.9 3.1c-1.3 1.4-2.4 3.1-3 4.9l-4.1.5-.5 2.6 4 .4c-.1 1.8.3 3.5 1.1 4.9l-3.2 3.3 1.5 1.8 3.7-2.6c1.2 1 2.7 1.7 4.5 2l-.3 4.1h2.6l1.2-4.1c1.8-.3 3.6-1 5.2-2l2.8 2.6 2.2-1.8-2-3.2c1.3-1.4 2.3-3 2.9-4.8l4.3-.4zm-16.3 5.1c-3.5 0-5.8-2.8-5.1-6.3s4.1-6.3 7.5-6.3c3.5 0 5.8 2.8 5.1 6.3-.6 3.4-4 6.3-7.5 6.3z"/><path class="st6" d="M131 51.8l.5-2.6-4-.4c.1-1.8-.3-3.4-1-4.9l3.2-3.3-1.5-1.8-3.7 2.6c-1.2-1-2.7-1.8-4.5-2.1l.3-4.1h-2.6l-1.2 4c-1.9.3-3.7 1-5.3 2l-2.7-2.5-2.2 1.8 1.9 3.1c-1.3 1.4-2.4 3.1-3 4.9l-4.1.5-.5 2.6 4 .4c-.1 1.8.3 3.5 1.1 4.9l-3.2 3.3L104 62l3.7-2.6c1.2 1 2.7 1.7 4.5 2l-.3 4.1h2.6l1.2-4.1c1.8-.3 3.6-1 5.2-2l2.8 2.6 2.2-1.8-2-3.2c1.3-1.4 2.3-3 2.9-4.8l4.2-.4zm-16.3 5c-3.5 0-5.8-2.8-5.1-6.3s4.1-6.3 7.5-6.3c3.5 0 5.8 2.8 5.1 6.3-.6 3.5-4 6.3-7.5 6.3z"/></g><g><path class="st5" d="M371.7 228.1l.8-4.1-6.4-.7c.1-2.8-.5-5.4-1.6-7.7l5-5.2-2.3-2.9-5.8 4.1c-1.9-1.6-4.3-2.8-7.1-3.2l.4-6.4h-4.1l-1.9 6.4c-3 .4-5.8 1.6-8.4 3.2l-4.3-3.9-3.4 2.9 3.1 5c-2.1 2.3-3.7 4.9-4.7 7.8l-6.6.8-.8 4.1 6.3.7c-.1 2.9.5 5.5 1.7 7.7l-5 5.2 2.3 2.9 5.9-4.1c1.9 1.6 4.3 2.7 7.1 3.2l-.4 6.5h4.1l1.9-6.5c2.9-.5 5.7-1.6 8.2-3.2l4.5 4 3.4-2.9-3.2-5.1c2-2.2 3.7-4.8 4.7-7.6l6.6-1zm-25.6 8c-5.5 0-9.1-4.5-8-10s6.4-10 11.9-10 9.1 4.5 8 10-6.4 10-11.9 10z"/><path class="st6" d="M370.8 226.2l.8-4.1-6.4-.7c.1-2.8-.5-5.4-1.6-7.7l5-5.2-2.3-2.9-5.8 4.1c-1.9-1.6-4.3-2.8-7.1-3.2l.4-6.4h-4.1l-1.9 6.4c-3 .4-5.8 1.6-8.4 3.2l-4.3-3.9-3.4 2.9 3.1 5c-2.1 2.3-3.7 4.9-4.7 7.8l-6.6.8-.8 4.1 6.3.7c-.1 2.9.5 5.5 1.7 7.7l-5 5.2 2.3 2.9 5.9-4.1c1.9 1.6 4.3 2.7 7.1 3.2l-.4 6.5h4.1l1.9-6.5c2.9-.5 5.7-1.6 8.2-3.2l4.5 4 3.4-2.9-3.2-5.1c2-2.2 3.7-4.8 4.7-7.6l6.6-1zm-25.7 7.9c-5.5 0-9.1-4.5-8-10s6.4-10 11.9-10 9.1 4.5 8 10c-1 5.6-6.3 10-11.9 10z"/></g><g><path class="st5" d="M94 175.2H54.4L71 108.5h39.6L107 123H85.5l-2.6 10.5h20L99.2 148h-20l-3.1 12.6h21.6L94 175.2zM129.8 151l-6.1 24.3h-18l16.6-66.7h21.9c18.1 0 25.6 6.6 22.3 19.7-1.9 7.7-7.2 13.7-15.8 17.9l12.2 29.1h-20.4l-8.1-24.3h-4.6zm3.3-13.6h3.4c6.3 0 10.1-2.8 11.5-8.3 1.1-4.6-1.4-6.9-7.5-6.9h-3.6l-3.8 15.2zM193 151l-6.1 24.3h-18l16.6-66.7h21.9c18.1 0 25.6 6.6 22.3 19.7-1.9 7.7-7.2 13.7-15.8 17.9l12.2 29.1h-20.4l-8.1-24.3H193zm3.4-13.6h3.4c6.3 0 10.1-2.8 11.5-8.3 1.1-4.6-1.4-6.9-7.5-6.9h-3.6l-3.8 15.2zM322 151l-6.1 24.3h-18l16.6-66.7h21.9c18.1 0 25.6 6.6 22.3 19.7-1.9 7.7-7.2 13.7-15.8 17.9l12.2 29.1h-20.4l-8.1-24.3H322zm3.4-13.6h3.4c6.3 0 10.1-2.8 11.5-8.3 1.1-4.6-1.4-6.9-7.5-6.9h-3.6l-3.8 15.2z"/><g><path class="st6" d="M91.2 173.1H51.6l16.6-66.7h39.6l-3.6 14.5H82.7l-2.6 10.5h20l-3.6 14.5h-20l-3.1 12.6H95l-3.8 14.6zM127 148.8l-6.1 24.3h-18l16.6-66.7h21.9c18.1 0 25.6 6.6 22.3 19.7-1.9 7.7-7.2 13.7-15.8 17.9l12.2 29.1h-20.4l-8.1-24.3H127zm3.4-13.6h3.4c6.3 0 10.1-2.8 11.5-8.3 1.1-4.6-1.4-6.9-7.5-6.9h-3.6l-3.8 15.2zM190.2 148.8l-6.1 24.3h-18l16.6-66.7h21.9c18.1 0 25.6 6.6 22.3 19.7-1.9 7.7-7.2 13.7-15.8 17.9l12.2 29.1h-20.4l-8.1-24.3h-4.6zm3.4-13.6h3.4c6.3 0 10.1-2.8 11.5-8.3 1.1-4.6-1.4-6.9-7.5-6.9h-3.6l-3.8 15.2zM319.2 148.8l-6.1 24.3h-18l16.6-66.7h21.9c18.1 0 25.6 6.6 22.3 19.7-1.9 7.7-7.2 13.7-15.8 17.9l12.2 29.1h-20.4l-8.1-24.3h-4.6zm3.4-13.6h3.4c6.3 0 10.1-2.8 11.5-8.3 1.1-4.6-1.4-6.9-7.5-6.9h-3.6l-3.8 15.2z"/></g></g></g><g id="lNEqHU_2_"><path class="st5" d="M234.2 125.6c.5-.3 1-.7 1.6-.8 2.7-.3 5.4-.6 8-.8 2-.2 3.7.6 4.9 2.2 1 1.3 2.1 2.6 3 4 .9 1.3 1.8 1.4 3.1.7 1.7-.9 3.3-1.8 5.1-2.4 3.9-1.4 7.2 1.5 6.4 5.5-2.5 12.3-5.1 24.5-7.6 36.8-.5 2.2-2.1 2.8-3.8 1.3-2.9-2.7-4.5-6.2-6.2-9.7-.6-1.3-1.2-2.6-2.2-3.6-2.4-2.5-5-2.3-7.1.3-1.5 1.8-3.1 3.7-4.6 5.5-.8.9-1.6 1.5-2.7.6-1-.9-.7-1.8.1-2.7 1.7-2 3.3-4.1 5-6.1 2.1-2.4 4.7-3.6 7.9-2.4.9.4 1.3-.1 1.3-1 0-1.8.1-3.6.2-5.3.1-1.3-.4-2.2-1.7-2.4-3.1-.6-6.2-1.3-9.3-1.9-1.4-.3-2-1.1-1.6-2.2.3-1.1 1.1-1.3 2.2-1.1 3 .6 6 1.3 9 1.9 1.7.3 2.6-.2 3.1-1.8.4-1.3.9-2.6 1.6-3.8.6-1 .5-1.9-.1-2.9-1.1-1.6-2.1-3.1-3.2-4.6-.8-1.2-2-1.6-3.5-1.4-2.1.2-4.3.4-6.4.7-1.3.2-2.2-.1-2.8-1.3.2-.5.3-.9.3-1.3zM301.3 140.8c-1.1.9-2.1.7-3.2 0-1.7-1.1-3.4-2-5.1-3-1.4-.9-2.9-.9-4.3-.1-1.5.9-3.1 1.7-4.4 2.7-.7.6-1.2 1.6-1.4 2.5-.2 1.5-.1 3.1-.2 4.7 0 1.3.6 2.2 2 2.5l8.7 1.8c1.2.2 2.2.6 2 2.1-.2 1.2-1.1 1.6-2.8 1.2-2.7-.6-5.5-1.2-8.2-1.7-2-.4-2.6 0-3.3 1.8-.6 1.5-1.2 2.9-1.8 4.4-.4 1-.3 1.5.9 1.7 3.5.4 5.4 2.4 6.3 5.7.6 2.3 1.3 4.5 2 6.7.3 1.2.7 2.3-.9 2.9-1.2.4-1.8-.2-2.4-2-.6-2.2-1.3-4.4-1.9-6.6-.9-2.9-2.7-4.1-5.7-3.2-1.1.3-2.1.9-3 1.6-2.4 1.9-4.6 4-7.1 5.8-1.1.8-2.4 1.5-3.7 1.8-2.3.5-3.3-.7-2.8-3 .8-4 1.7-8.1 2.5-12.1 1.6-7.9 3.3-15.8 4.9-23.8 1-4.8 5.1-6.1 8.7-2.8 1 .9 1.9 2.1 2.7 3.3 1.4 2 2 2.1 4.2.9 1.1-.6 2.2-1.2 3.3-1.9 2.3-1.4 4.5-1.3 6.8 0 2.1 1.2 4.2 2.3 6.2 3.6.5.3.8.9 1.1 1.3.1.4 0 .8-.1 1.2z"/><path class="st5" d="M258 126.7c.4-2.9 1.5-5.2 3.8-6.9 1.2-.9 1.3-1.9.7-3-1.8-3.6-4.8-5.7-8.6-6.7-1.4-.3-2.8-.5-4.2-.9-.4-.1-.7-.8-1-1.2.5-.3 1-.9 1.3-.8 3.2.9 6.4 1.8 9.4 3.1 2.6 1.1 4.2 3.5 5.3 6.1.4 1 .9 1.4 2.1 1.2 3-.7 5.8-.1 8.3 1.7.8.5 1.3.7 2.1 0 3.7-3.6 8.2-4.4 13.1-3.7 1.3.2 2.5.5 3.7.8.8.2 1.6.4 1.3 1.4-.2 1-1.1.9-1.8.7-1.9-.3-3.7-.8-5.6-.9-3.5-.3-6.5.9-9.1 3.1-.9.7-1 1.4-.4 2.4 1.5 2.5 1.6 5.2.9 8.2-6.2-5.8-13.3-7.3-21.3-4.6z"/></g><g id="lNEqHU_1_"><path class="st6" d="M233.2 123.6c.5-.3 1-.7 1.6-.8 2.7-.3 5.4-.6 8-.8 2-.2 3.7.6 4.9 2.2 1 1.3 2.1 2.6 3 4 .9 1.3 1.8 1.4 3.1.7 1.7-.9 3.3-1.8 5.1-2.4 3.9-1.4 7.2 1.5 6.4 5.5-2.5 12.3-5.1 24.5-7.6 36.8-.5 2.2-2.1 2.8-3.8 1.3-2.9-2.7-4.5-6.2-6.2-9.7-.6-1.3-1.2-2.6-2.2-3.6-2.4-2.5-5-2.3-7.1.3-1.5 1.8-3.1 3.7-4.6 5.5-.8.9-1.6 1.5-2.7.6-1-.9-.7-1.8.1-2.7 1.7-2 3.3-4.1 5-6.1 2.1-2.4 4.7-3.6 7.9-2.4.9.4 1.3-.1 1.3-1 0-1.8.1-3.6.2-5.3.1-1.3-.4-2.2-1.7-2.4-3.1-.6-6.2-1.3-9.3-1.9-1.4-.3-2-1.1-1.6-2.2.3-1.1 1.1-1.3 2.2-1.1 3 .6 6 1.3 9 1.9 1.7.3 2.6-.2 3.1-1.8.4-1.3.9-2.6 1.6-3.8.6-1 .5-1.9-.1-2.9-1.1-1.6-2.1-3.1-3.2-4.6-.8-1.2-2-1.6-3.5-1.4-2.1.2-4.3.4-6.4.7-1.3.2-2.2-.1-2.8-1.3.2-.5.3-.9.3-1.3zM300.3 138.8c-1.1.9-2.1.7-3.2 0-1.7-1.1-3.4-2-5.1-3-1.4-.9-2.9-.9-4.3-.1-1.5.9-3.1 1.7-4.4 2.7-.7.6-1.2 1.6-1.4 2.5-.2 1.5-.1 3.1-.2 4.7 0 1.3.6 2.2 2 2.5l8.7 1.8c1.2.2 2.2.6 2 2.1-.2 1.2-1.1 1.6-2.8 1.2-2.7-.6-5.5-1.2-8.2-1.7-2-.4-2.6 0-3.3 1.8-.6 1.5-1.2 2.9-1.8 4.4-.4 1-.3 1.5.9 1.7 3.5.4 5.4 2.4 6.3 5.7.6 2.3 1.3 4.5 2 6.7.3 1.2.7 2.3-.9 2.9-1.2.4-1.8-.2-2.4-2-.6-2.2-1.3-4.4-1.9-6.6-.9-2.9-2.7-4.1-5.7-3.2-1.1.3-2.1.9-3 1.6-2.4 1.9-4.6 4-7.1 5.8-1.1.8-2.4 1.5-3.7 1.8-2.3.5-3.3-.7-2.8-3 .8-4 1.7-8.1 2.5-12.1 1.6-7.9 3.3-15.8 4.9-23.8 1-4.8 5.1-6.1 8.7-2.8 1 .9 1.9 2.1 2.7 3.3 1.4 2 2 2.1 4.2.9 1.1-.6 2.2-1.2 3.3-1.9 2.3-1.4 4.5-1.3 6.8 0 2.1 1.2 4.2 2.3 6.2 3.6.5.3.8.9 1.1 1.3.1.4 0 .8-.1 1.2z"/><path class="st6" d="M257 124.7c.4-2.9 1.5-5.2 3.8-6.9 1.2-.9 1.3-1.9.7-3-1.8-3.6-4.8-5.7-8.6-6.7-1.4-.3-2.8-.5-4.2-.9-.4-.1-.7-.8-1-1.2.5-.3 1-.9 1.3-.8 3.2.9 6.4 1.8 9.4 3.1 2.6 1.1 4.2 3.5 5.3 6.1.4 1 .9 1.4 2.1 1.2 3-.7 5.8-.1 8.3 1.7.8.5 1.3.7 2.1 0 3.7-3.6 8.2-4.4 13.1-3.7 1.3.2 2.5.5 3.7.8.8.2 1.6.4 1.3 1.4-.2 1-1.1.9-1.8.7-1.9-.3-3.7-.8-5.6-.9-3.5-.3-6.5.9-9.1 3.1-.9.7-1 1.4-.4 2.4 1.5 2.5 1.6 5.2.9 8.2-6.2-5.8-13.3-7.3-21.3-4.6z"/></g></svg>